<?xml version="1.0" standalone="no"?>
<!DOCTYPE svg PUBLIC "-//W3C//DTD SVG 20010904//EN"
 "http://www.w3.org/TR/2001/REC-SVG-20010904/DTD/svg10.dtd">
<svg version="1.0" xmlns="http://www.w3.org/2000/svg"
 width="1759.000000pt" height="923.000000pt" viewBox="0 0 1759.000000 923.000000"
 preserveAspectRatio="xMidYMid meet">

<g transform="translate(0.000000,923.000000) scale(0.100000,-0.100000)"
fill="#000000" stroke="none">
<path d="M14158 7264 c-214 -51 -344 -238 -308 -443 16 -92 41 -142 101 -206
92 -97 231 -144 389 -132 249 19 413 196 398 430 -17 258 -288 422 -580 351z"/>
<path d="M1110 6189 c-52 -5 -158 -21 -235 -35 -344 -62 -585 -190 -671 -357
-42 -80 -37 -206 12 -327 29 -73 133 -250 147 -250 5 0 34 22 65 49 152 130
330 219 542 272 84 21 118 24 295 24 179 0 208 -2 279 -23 174 -50 272 -124
333 -251 34 -71 37 -84 41 -188 l5 -113 -272 0 c-173 0 -324 -6 -417 -15 -594
-63 -982 -263 -1148 -592 -14 -28 -38 -91 -53 -140 -24 -81 -26 -102 -26 -263
0 -158 2 -185 26 -274 92 -344 331 -587 677 -691 117 -35 220 -48 375 -47 203
1 392 40 553 112 80 37 213 124 278 183 29 26 54 47 57 47 2 0 7 -14 11 -30
11 -57 57 -140 103 -185 104 -104 258 -142 497 -124 131 10 222 29 308 67 l57
24 -24 32 c-67 88 -113 254 -124 450 -4 72 -8 455 -8 851 -1 705 -3 752 -34
900 -20 95 -62 210 -110 305 -169 331 -477 525 -928 585 -117 16 -455 18 -611
4z m810 -1995 c0 -397 3 -383 -90 -474 -115 -113 -252 -170 -420 -178 -292
-12 -495 135 -529 382 -26 186 40 350 181 449 155 109 389 162 736 166 l122 1
0 -346z"/>
<path d="M4764 6165 c-233 -41 -410 -130 -566 -285 l-77 -77 -30 62 c-59 120
-184 208 -342 241 -85 18 -317 15 -407 -6 l-52 -12 2 -1536 3 -1537 433 -3
432 -2 0 1037 c0 1114 0 1117 51 1218 73 146 252 225 479 212 221 -14 353
-100 417 -272 17 -47 18 -109 21 -1122 l3 -1073 434 0 435 0 0 1023 c0 632 4
1049 10 1092 13 89 57 182 108 232 87 84 244 130 412 120 217 -13 347 -94 412
-255 l23 -57 3 -1077 3 -1078 434 0 435 0 0 1114 c0 1058 -1 1120 -19 1228
-44 251 -131 429 -283 574 -117 113 -243 178 -436 226 -75 19 -114 22 -282 22
-163 0 -210 -3 -285 -21 -254 -60 -463 -177 -629 -353 l-65 -70 -44 68 c-115
178 -275 286 -516 349 -122 32 -387 41 -517 18z"/>
<path d="M16180 6169 c-458 -52 -813 -267 -960 -583 -54 -114 -70 -184 -77
-316 -15 -325 122 -603 381 -774 161 -107 262 -144 611 -226 269 -63 345 -86
411 -125 61 -36 121 -109 139 -168 54 -182 -45 -315 -284 -379 -103 -27 -337
-30 -463 -5 -182 36 -390 124 -547 232 l-81 55 -61 -92 c-72 -110 -122 -213
-139 -287 -68 -292 287 -496 924 -530 423 -23 773 41 1038 191 316 178 490
450 505 788 17 392 -170 690 -551 875 -144 70 -214 93 -497 160 -285 68 -344
87 -402 128 -85 61 -111 114 -105 216 3 60 8 75 34 108 43 54 124 99 213 120
99 23 302 22 431 -1 185 -33 400 -121 557 -227 l72 -49 58 97 c116 197 148
336 103 441 -94 218 -534 365 -1080 361 -85 -1 -189 -5 -230 -10z"/>
<path d="M12785 6164 c-170 -35 -250 -66 -361 -140 -89 -59 -167 -137 -224
-226 l-37 -56 -18 56 c-24 78 -57 132 -114 185 -60 56 -111 82 -209 109 -123
32 -366 28 -494 -8 -17 -5 -18 -87 -18 -1540 l0 -1534 435 0 435 0 2 1123 c3
1255 -3 1155 75 1214 33 25 44 28 112 27 42 -1 125 -11 186 -23 159 -31 304
-38 385 -17 180 47 289 153 513 500 38 58 88 126 113 150 51 51 50 53 -47 92
-83 32 -202 63 -314 80 -82 12 -370 18 -420 8z"/>
<path d="M8125 6114 c-11 -3 -46 -9 -77 -16 -65 -12 -64 -9 -27 -113 9 -27
207 -624 439 -1325 232 -701 449 -1358 483 -1460 l62 -185 123 -3 c67 -1 122
-4 122 -7 0 -2 -14 -42 -31 -89 -92 -254 -245 -355 -519 -343 -134 5 -251 33
-354 82 -83 40 -75 44 -136 -75 -104 -206 -106 -350 -5 -452 112 -114 311
-168 615 -169 612 0 938 245 1169 879 37 101 109 339 471 1537 433 1437 510
1692 510 1702 0 21 -154 43 -305 43 -210 0 -346 -51 -472 -177 -117 -117 -145
-187 -302 -738 -174 -611 -350 -1227 -356 -1244 -3 -8 -8 -12 -10 -9 -3 2 -66
198 -140 434 -75 236 -162 512 -195 614 -32 102 -84 266 -115 365 -125 396
-148 452 -229 556 -76 96 -203 164 -356 188 -61 10 -322 13 -365 5z"/>
<path d="M13955 6110 c-27 -5 -60 -12 -72 -15 l-23 -5 0 -1308 c0 -792 4
-1330 10 -1366 34 -210 131 -332 308 -386 133 -41 355 -47 522 -14 l30 7 -3
1351 c-3 1472 1 1382 -58 1503 -28 59 -97 134 -153 167 -90 52 -168 69 -346
72 -91 1 -187 -1 -215 -6z"/>
</g>
</svg>
