<?xml version="1.0" standalone="no"?>
<!DOCTYPE svg PUBLIC "-//W3C//DTD SVG 20010904//EN"
 "http://www.w3.org/TR/2001/REC-SVG-20010904/DTD/svg10.dtd">
<svg version="1.0" xmlns="http://www.w3.org/2000/svg"
 width="986.000000pt" height="616.000000pt" viewBox="0 0 986.000000 616.000000"
 preserveAspectRatio="xMidYMid meet">

<g transform="translate(0.000000,616.000000) scale(0.100000,-0.100000)"
fill="#000000" stroke="none">
<path d="M1531 5927 c-22 -22 -10 -37 84 -109 52 -39 95 -75 95 -80 0 -4 57
-52 128 -107 70 -55 146 -115 169 -133 23 -18 42 -36 43 -40 0 -11 -54 -97
-62 -98 -4 0 -13 7 -22 15 -8 8 -18 15 -23 15 -4 0 5 -11 20 -25 26 -25 26
-27 11 -50 -20 -30 -28 -32 -21 -5 4 17 2 18 -16 8 -12 -6 -19 -7 -14 -3 4 5
-12 15 -35 23 -23 8 -58 25 -77 38 -20 13 -41 24 -47 24 -7 0 -24 7 -40 15
-29 15 -68 11 -93 -8 -9 -8 -12 -27 -9 -66 5 -50 9 -57 59 -105 62 -57 121
-106 131 -106 3 0 29 24 58 53 37 37 50 46 48 32 -1 -11 7 -36 19 -55 12 -19
30 -61 42 -93 11 -32 34 -79 50 -104 17 -26 31 -54 31 -64 0 -10 8 -20 18 -24
22 -6 109 -70 161 -117 20 -18 68 -59 107 -90 38 -31 81 -67 95 -80 14 -13 45
-39 69 -58 25 -19 47 -37 50 -41 3 -3 49 -38 104 -78 164 -118 161 -119 447
249 28 36 78 108 111 160 33 52 74 115 89 139 16 25 29 47 29 50 -1 3 -20 20
-44 38 l-44 32 -19 -22 c-11 -12 -29 -35 -40 -52 l-21 -30 41 -20 c34 -16 41
-25 39 -44 -3 -26 -67 -111 -84 -111 -5 0 -25 15 -44 34 l-35 35 -44 -57 c-25
-31 -75 -98 -113 -149 -37 -50 -71 -92 -76 -92 -7 -1 -78 47 -126 86 -22 17
-274 203 -430 318 -74 54 -137 99 -139 101 -6 5 67 128 138 229 39 54 69 100
68 101 -1 1 -11 4 -21 6 -20 3 -57 32 -115 89 -20 20 -46 39 -58 43 -15 5 -20
12 -16 24 4 9 -8 2 -26 -15 -18 -18 -34 -33 -37 -33 -4 0 -225 160 -234 170
-3 3 -25 21 -50 40 -25 19 -46 38 -48 42 -2 4 -9 8 -14 8 -13 0 -165 113 -189
141 -12 13 -19 15 -28 6z"/>
<path d="M2270 5703 c-48 -37 -93 -89 -60 -68 6 4 27 -3 47 -15 21 -12 45 -19
57 -16 15 4 32 -5 59 -30 20 -19 37 -32 37 -28 0 4 9 -4 21 -17 l21 -24 45 50
c39 44 42 51 27 60 -9 6 -38 26 -64 46 -33 26 -54 36 -71 32 -15 -3 -32 3 -46
16 -28 27 -31 26 -73 -6z"/>
<path d="M1915 5400 c3 -5 8 -10 11 -10 2 0 4 5 4 10 0 6 -5 10 -11 10 -5 0
-7 -4 -4 -10z"/>
<path d="M2610 5201 c0 -10 19 -25 25 -20 1 2 -3 10 -11 17 -8 7 -14 8 -14 3z"/>
<path d="M2590 5180 c0 -5 -8 -7 -17 -3 -16 6 -16 4 1 -15 22 -26 28 -28 20
-7 -5 12 -2 14 12 8 17 -6 17 -5 5 10 -15 19 -21 21 -21 7z"/>
<path d="M2540 5142 c0 -5 6 -16 13 -24 10 -14 14 -15 24 -3 7 8 9 16 5 18
-20 11 -42 15 -42 9z"/>
<path d="M2617 5103 c-12 -11 -8 -22 14 -34 16 -8 24 -8 33 2 8 9 8 10 -2 5
-13 -8 -45 18 -35 28 4 3 4 6 1 6 -2 0 -8 -3 -11 -7z"/>
<path d="M2520 5085 c14 -17 40 -20 40 -4 0 5 -4 8 -9 4 -5 -3 -12 -1 -16 5
-3 5 -11 10 -17 10 -7 0 -6 -6 2 -15z"/>
<path d="M2495 5054 c16 -25 16 -25 -7 -13 -23 12 -23 12 -4 -10 19 -21 9 -30
-11 -10 -9 9 -16 8 -28 -5 -9 -9 -13 -16 -9 -16 4 0 -1 -6 -12 -14 -19 -14
-19 -15 1 -22 11 -4 23 -12 27 -18 9 -14 39 24 33 42 -3 7 0 10 5 7 6 -4 15 7
21 24 6 17 16 31 22 31 13 1 -33 29 -47 30 -4 0 -1 -12 9 -26z"/>
<path d="M2585 5061 c-3 -5 -1 -12 4 -15 5 -4 11 -1 13 5 2 7 8 6 16 -3 10
-12 7 -14 -18 -13 -28 2 -29 1 -14 -16 15 -17 17 -17 38 2 21 20 21 21 2 35
-23 16 -33 18 -41 5z"/>
<path d="M2699 5019 c13 -11 26 -17 29 -14 7 6 -29 34 -43 34 -5 0 1 -9 14
-20z"/>
<path d="M2550 5014 c0 -9 32 -33 44 -34 5 0 1 9 -9 20 -18 20 -35 26 -35 14z"/>
<path d="M2662 5004 c5 -27 35 -41 50 -25 11 12 10 13 -4 8 -10 -4 -18 -2 -18
4 0 6 -5 7 -12 3 -8 -5 -9 -2 -5 9 3 10 2 17 -4 17 -6 0 -9 -7 -7 -16z"/>
<path d="M3585 4994 c-9 -15 -12 -23 -6 -20 11 7 35 46 28 46 -3 0 -12 -12
-22 -26z"/>
<path d="M2517 4963 c-6 -16 -16 -31 -21 -35 -6 -4 0 -15 13 -27 30 -26 30
-26 24 -1 -4 15 -2 19 10 14 20 -7 32 29 17 56 -15 27 -28 25 -43 -7z m33 -13
c8 -5 11 -12 7 -16 -4 -4 -15 0 -24 9 -18 18 -8 23 17 7z"/>
<path d="M2637 4973 c-9 -15 34 -46 46 -34 13 13 -2 34 -18 27 -8 -3 -15 0
-18 7 -2 8 -5 8 -10 0z"/>
<path d="M2600 4925 c0 -8 -9 -24 -21 -36 -20 -20 -20 -22 -3 -40 16 -18 44
-26 44 -13 0 3 -10 14 -22 25 l-23 19 30 -6 30 -7 -19 22 c-20 22 -9 30 12 9
9 -9 15 -9 23 -1 8 8 5 13 -10 18 -12 3 -21 11 -21 16 0 5 -4 9 -10 9 -5 0
-10 -7 -10 -15z"/>
<path d="M1712 4848 c4 -41 11 -57 35 -77 48 -42 125 -105 147 -121 12 -8 37
-28 56 -46 19 -17 73 -62 120 -100 47 -37 90 -73 96 -79 6 -5 28 -23 49 -40
58 -45 224 -181 275 -224 93 -79 117 -98 177 -144 34 -26 69 -47 77 -47 9 0
30 13 47 28 l32 28 -239 190 c-131 104 -351 278 -489 387 -137 108 -278 220
-312 247 -34 28 -65 50 -69 50 -3 0 -4 -23 -2 -52z"/>
<path d="M2806 4755 c-10 -14 -25 -25 -33 -25 -19 0 -11 -24 9 -28 13 -2 58
55 58 74 0 12 -17 1 -34 -21z"/>
<path d="M2881 4754 c-14 -31 -14 -34 0 -34 5 0 8 4 4 9 -3 5 2 16 10 25 8 8
11 17 7 20 -5 3 -14 -6 -21 -20z"/>
<path d="M3376 4732 l-19 -27 26 24 c28 26 32 31 20 31 -5 0 -17 -13 -27 -28z"/>
<path d="M3339 4683 c-32 -39 -44 -57 -32 -50 13 8 57 67 50 67 -2 0 -10 -8
-18 -17z"/>
<path d="M2810 4681 c0 -10 30 -24 37 -17 3 3 2 9 -2 15 -8 13 -35 15 -35 2z"/>
<path d="M4310 4473 c-35 -43 -69 -83 -77 -89 -7 -6 -10 -14 -6 -17 3 -4 1 -7
-5 -7 -6 0 -9 -7 -5 -16 5 -14 3 -15 -14 -5 -12 6 -43 27 -69 48 -128 97 -150
113 -158 113 -5 0 -3 -7 4 -15 19 -23 -2 -19 -68 11 -31 14 -83 31 -114 37
-49 9 -63 8 -96 -7 -32 -15 -112 -93 -112 -109 0 -3 71 -59 158 -126 127 -96
410 -326 505 -409 16 -14 20 -13 47 13 48 46 72 105 64 156 -9 56 -28 95 -67
136 -26 28 -28 34 -17 48 11 13 11 21 2 35 -6 10 -8 20 -4 22 4 2 41 46 82 98
41 52 79 98 85 103 11 8 -38 57 -58 57 -7 0 -41 -35 -77 -77z m-533 31 c-3 -3
-12 -4 -19 -1 -8 3 -5 6 6 6 11 1 17 -2 13 -5z m-57 -11 c-8 -3 -24 -10 -35
-15 -20 -9 -20 -9 -1 6 11 9 27 16 35 15 14 0 14 -1 1 -6z m383 -117 c41 -32
50 -53 15 -35 -29 14 -78 60 -78 71 0 11 14 3 63 -36z m-165 -21 c20 -9 61
-30 90 -48 43 -26 52 -36 52 -59 0 -28 -22 -39 -35 -17 -4 6 -34 22 -67 36
-47 21 -63 34 -79 65 -21 42 -16 45 39 23z"/>
<path d="M125 4334 c-102 -20 -125 -27 -125 -35 0 -6 8 -8 18 -5 44 12 132 27
154 25 12 -1 34 -1 48 1 24 2 24 3 -5 10 -33 9 -60 10 -90 4z"/>
<path d="M4857 4247 c-15 -5 -27 -13 -27 -18 0 -6 8 -6 19 1 33 17 71 11 96
-15 14 -13 25 -20 25 -15 0 15 -40 48 -64 52 -12 3 -34 0 -49 -5z"/>
<path d="M1879 4193 c-12 -15 -12 -16 3 -10 11 4 16 2 13 -6 -4 -14 70 -80 91
-80 8 0 14 -4 14 -9 0 -5 5 -6 12 -2 8 5 9 2 5 -9 -4 -12 -1 -17 11 -17 9 0
22 -10 27 -22 6 -13 18 -22 27 -22 10 1 14 -4 11 -12 -5 -14 12 -20 20 -6 2 4
2 2 1 -5 -4 -17 23 -36 41 -29 13 5 14 2 4 -17 -7 -12 -25 -39 -41 -60 -24
-30 -28 -40 -18 -52 9 -11 7 -21 -10 -45 -21 -29 -23 -30 -35 -13 -13 17 -17
14 -65 -32 -30 -30 -48 -42 -44 -30 4 11 4 17 0 14 -6 -6 -42 20 -92 67 -13
12 -27 24 -33 25 -9 4 -66 51 -131 110 l-29 26 -22 -23 c-11 -12 -18 -27 -14
-33 3 -6 50 -47 103 -92 53 -44 114 -96 135 -115 33 -30 41 -34 54 -22 14 11
15 11 7 -3 -28 -47 -90 -129 -98 -129 -11 0 -197 138 -208 154 -10 15 -21 1
-36 -47 -28 -87 -31 -111 -20 -166 12 -66 27 -99 79 -167 22 -28 39 -56 39
-62 0 -6 14 -27 30 -45 17 -19 30 -38 30 -42 0 -4 20 -33 44 -65 25 -32 63
-94 86 -138 22 -44 47 -86 55 -92 8 -7 15 -23 15 -36 0 -12 5 -26 10 -29 6 -4
8 -10 5 -15 -6 -9 103 -108 250 -226 61 -48 124 -99 140 -113 17 -14 51 -42
75 -61 24 -19 58 -47 74 -61 l30 -26 -43 -54 c-47 -58 -111 -119 -124 -119 -5
0 -37 25 -70 56 -95 85 -278 166 -372 163 -19 -1 -6 -6 35 -14 36 -7 85 -21
110 -30 53 -19 162 -83 205 -120 17 -15 4 -9 -30 13 -148 98 -255 131 -428
132 -69 1 -135 -4 -172 -13 -455 -112 -661 -667 -394 -1064 59 -88 196 -214
256 -234 9 -3 -156 -233 -280 -389 -41 -52 -78 -112 -73 -117 3 -4 6 -1 6 5 0
14 97 112 111 112 6 0 8 7 5 16 -3 8 -2 13 3 9 5 -3 31 6 57 20 57 30 115 32
177 6 62 -27 186 -42 212 -26 11 7 37 18 58 25 21 6 58 29 83 51 25 21 49 39
55 39 5 0 9 7 9 15 0 8 6 15 13 15 7 0 26 18 43 40 16 22 34 40 39 40 17 1 65
88 52 94 -7 3 -1 3 12 0 14 -4 21 -2 18 3 -4 6 6 16 21 24 219 111 369 318
402 556 22 162 -25 369 -114 499 -27 40 -27 61 0 28 8 -10 13 -13 9 -6 -10 19
6 14 33 -10 l24 -23 -7 26 c-6 25 -3 28 40 44 l46 18 62 -32 c63 -32 98 -52
107 -61 40 -40 210 -67 277 -44 43 15 113 63 121 83 3 9 21 30 39 49 18 18 33
39 33 47 0 8 6 12 13 10 13 -5 54 61 49 78 -2 5 4 7 13 3 11 -4 15 -2 12 6 -2
7 -12 12 -22 11 -12 -1 -7 10 20 37 21 21 44 36 51 33 8 -3 15 1 16 8 0 8 2
19 2 25 2 19 80 103 90 97 5 -3 6 -1 2 5 -4 7 10 33 32 60 78 93 183 251 222
334 31 65 39 135 19 155 -8 8 -5 17 13 35 12 12 26 22 31 20 4 -1 7 5 7 14 0
8 26 50 58 92 32 42 61 85 65 95 3 9 11 17 17 17 5 0 10 6 10 13 0 7 16 30 35
51 19 21 35 43 35 49 0 7 -4 7 -12 -1 -7 -7 -20 -12 -29 -12 -10 0 -20 -11
-23 -25 -6 -25 -20 -33 -30 -16 -3 4 3 16 14 26 29 26 25 38 -27 75 -68 49
-552 437 -590 472 -38 36 -53 33 -88 -20 -29 -44 -25 -67 19 -115 28 -30 45
-77 28 -77 -6 0 -18 -21 -27 -47 -9 -27 -21 -55 -25 -64 -5 -9 -10 -42 -11
-74 -3 -52 0 -61 27 -88 30 -31 224 -194 312 -262 30 -24 51 -48 52 -60 0 -14
3 -16 8 -8 6 10 19 5 50 -18 l42 -30 -26 -51 c-14 -28 -53 -90 -86 -138 -51
-75 -58 -91 -49 -108 13 -25 14 -42 2 -61 -8 -12 -13 -12 -34 2 l-25 16 -113
-142 c-131 -165 -285 -327 -310 -327 -10 0 -64 38 -121 84 -295 241 -651 527
-681 548 -13 8 -10 12 124 175 110 134 253 323 247 327 -1 1 -12 8 -23 16 -18
14 -19 14 -7 -2 15 -19 6 -44 -24 -69 -10 -8 -15 -9 -12 -4 4 6 -7 20 -23 30
-16 11 -29 25 -29 32 0 6 -11 21 -25 31 -18 15 -22 23 -13 28 8 5 6 10 -8 15
-16 6 -16 8 -2 8 9 1 29 -4 45 -10 59 -22 8 7 -65 38 l-77 32 2 62 c1 34 5 65
10 70 4 4 28 4 53 -1 81 -15 158 -50 232 -105 l73 -53 22 26 c12 15 43 57 68
93 l46 66 -63 61 c-35 33 -76 70 -92 83 -73 58 -252 92 -366 71 -38 -7 -59 -7
-67 0 -9 7 -17 7 -28 -2 -8 -6 -23 -9 -34 -5 -17 5 -19 9 -9 31 8 17 9 28 2
32 -6 4 -70 57 -143 117 -73 61 -136 111 -140 113 -5 1 -14 -5 -22 -15z m96
-73 c3 -5 2 -10 -4 -10 -5 0 -13 5 -16 10 -3 6 -2 10 4 10 5 0 13 -4 16 -10z
m704 -286 c14 -12 -19 -1 -35 12 -18 14 -18 14 6 3 14 -6 27 -13 29 -15z
m1201 -488 c0 -7 -9 -16 -21 -19 -20 -5 -20 -5 -3 14 20 23 24 23 24 5z
m-1833 -221 c28 -31 54 -63 57 -71 3 -9 11 -12 18 -8 10 6 11 4 0 -7 -26 -28
-126 97 -164 206 -10 27 -18 56 -17 65 0 8 12 -18 27 -57 19 -52 42 -88 79
-128z m-43 -872 c241 -60 415 -279 441 -553 11 -116 -38 -300 -79 -300 -7 0
-26 -19 -41 -42 -50 -76 -171 -186 -244 -222 -123 -63 -243 -85 -351 -66 -36
6 -87 14 -115 19 -87 13 -178 80 -266 196 -45 60 -61 99 -94 225 -13 52 -24
88 -25 80 0 -13 -1 -13 -10 0 -5 8 -10 51 -10 96 0 143 58 289 153 384 172
171 414 240 641 183z"/>
<path d="M1329 1673 c-16 -73 -13 -139 10 -212 21 -66 100 -194 130 -211 29
-15 26 2 -5 31 -37 34 -92 129 -109 187 -17 56 -22 156 -11 220 11 63 -1 51
-15 -15z"/>
<path d="M1284 1550 c2 -68 8 -96 30 -141 35 -75 65 -100 32 -28 -25 55 -38
100 -55 199 -9 53 -10 52 -7 -30z"/>
<path d="M2067 1224 c-48 -33 -143 -74 -175 -74 -9 0 -26 -7 -36 -15 -19 -15
-19 -15 3 -15 47 0 200 72 223 105 4 5 8 6 8 2 0 -5 7 -1 16 8 29 28 10 23
-39 -11z"/>
<path d="M1552 1184 c10 -10 20 -15 24 -12 3 4 -5 12 -18 18 -22 12 -22 12 -6
-6z"/>
<path d="M1728 1123 c6 -2 18 -2 25 0 6 3 1 5 -13 5 -14 0 -19 -2 -12 -5z"/>
<path d="M5270 4185 c0 -5 5 -17 10 -25 5 -8 10 -10 10 -5 0 6 -5 17 -10 25
-5 8 -10 11 -10 5z"/>
<path d="M3520 4140 c0 -5 5 -10 11 -10 5 0 7 5 4 10 -3 6 -8 10 -11 10 -2 0
-4 -4 -4 -10z"/>
<path d="M3590 4115 c-7 -9 -8 -15 -2 -15 5 0 12 7 16 15 3 8 4 15 2 15 -2 0
-9 -7 -16 -15z"/>
<path d="M5332 4085 c15 -16 30 -26 33 -23 4 3 -9 16 -27 28 l-33 23 27 -28z"/>
<path d="M3520 4065 c-7 -9 -8 -15 -2 -15 5 0 12 7 16 15 3 8 4 15 2 15 -2 0
-9 -7 -16 -15z"/>
<path d="M3645 4070 c-3 -6 1 -7 9 -4 18 7 21 14 7 14 -6 0 -13 -4 -16 -10z"/>
<path d="M3550 4051 c0 -6 4 -13 10 -16 6 -3 7 1 4 9 -7 18 -14 21 -14 7z"/>
<path d="M6635 3970 c-11 -4 -31 -20 -45 -35 -25 -26 -25 -29 -28 -228 -4
-221 3 -264 45 -296 32 -26 112 -28 149 -5 49 33 54 57 54 274 0 163 -3 208
-16 235 -25 53 -101 79 -159 55z m110 -55 c25 -24 25 -25 25 -224 0 -129 -4
-209 -11 -225 -26 -55 -123 -55 -148 0 -7 16 -11 97 -11 223 0 185 1 200 21
225 28 36 89 37 124 1z"/>
<path d="M7018 3964 c-38 -20 -58 -64 -58 -127 0 -67 22 -103 104 -166 77 -60
99 -90 99 -138 0 -57 -11 -81 -44 -99 -62 -32 -118 4 -126 81 -5 35 -10 45
-24 45 -22 0 -24 -25 -9 -82 24 -87 135 -119 202 -59 29 26 33 35 36 97 4 82
-10 106 -103 179 -78 60 -95 88 -95 152 0 64 25 93 80 93 47 0 76 -27 85 -79
9 -53 35 -56 35 -6 0 97 -97 155 -182 109z"/>
<path d="M7408 3964 c-38 -20 -58 -64 -58 -126 0 -69 21 -102 109 -172 39 -31
76 -66 82 -78 16 -29 6 -125 -14 -146 -11 -10 -33 -17 -57 -17 -53 0 -81 28
-87 89 -5 36 -9 46 -24 46 -22 0 -24 -25 -9 -82 24 -86 135 -119 202 -59 27
24 32 36 36 88 6 80 -14 120 -86 174 -107 79 -132 124 -112 200 12 44 33 59
83 59 42 0 74 -32 79 -80 2 -24 9 -36 21 -38 14 -3 17 4 17 33 0 96 -98 155
-182 109z"/>
<path d="M7838 3972 c-10 -2 -18 -7 -18 -10 0 -4 -27 -132 -61 -286 -33 -153
-58 -280 -55 -283 15 -16 34 12 45 66 l12 62 91 -3 92 -3 14 -63 c11 -50 17
-62 30 -60 22 5 23 -6 -37 268 -74 337 -69 322 -113 312z m57 -234 c19 -86 35
-163 35 -172 0 -13 -13 -16 -75 -15 -41 1 -77 4 -80 9 -4 6 59 306 72 340 7
19 6 21 48 -162z"/>
<path d="M8608 3964 c-51 -27 -62 -64 -66 -227 -2 -82 -1 -178 3 -215 6 -57
12 -71 40 -99 29 -29 40 -33 85 -33 45 0 56 4 84 33 24 23 34 44 38 77 9 68 5
94 -14 98 -15 3 -18 -4 -18 -45 0 -98 -53 -149 -123 -119 -52 21 -59 60 -55
277 3 172 4 178 27 203 18 19 34 26 60 26 61 -1 91 -41 91 -121 0 -33 3 -40
18 -37 14 3 17 13 14 57 -1 29 -10 67 -18 83 -27 51 -110 73 -166 42z"/>
<path d="M5980 3680 l0 -290 75 0 c136 0 175 36 175 160 0 58 -20 130 -37 130
-4 0 -14 4 -22 9 -11 7 -9 14 13 33 51 43 46 196 -7 233 -15 11 -47 15 -109
15 l-88 0 0 -290z m171 241 c19 -15 24 -30 27 -82 3 -54 1 -68 -18 -91 -19
-25 -28 -28 -81 -28 l-59 0 0 110 0 110 54 0 c38 0 61 -6 77 -19z m-6 -247
c28 -11 45 -60 45 -129 0 -57 -3 -69 -25 -90 -20 -21 -34 -25 -85 -25 l-60 0
0 125 0 125 54 0 c30 0 62 -3 71 -6z"/>
<path d="M6372 3683 c3 -265 4 -288 21 -291 16 -3 17 16 17 287 0 285 0 291
-20 291 -20 0 -20 -5 -18 -287z"/>
<path d="M8132 3683 c3 -248 5 -288 18 -288 13 0 16 36 20 245 l5 245 43 -120
c23 -66 62 -176 86 -245 36 -103 47 -126 65 -128 l21 -3 0 290 c0 252 -2 291
-15 291 -13 0 -15 -32 -15 -231 0 -126 -3 -228 -8 -225 -4 2 -43 106 -87 230
-78 221 -81 226 -108 226 l-27 0 2 -287z"/>
<path d="M8940 3680 l0 -291 113 3 c92 2 112 6 112 18 0 12 -18 16 -92 18
l-93 3 0 119 0 119 78 3 c60 2 77 6 77 18 0 12 -15 15 -75 15 l-75 0 -3 118
-3 117 96 0 c78 0 95 3 95 15 0 12 -19 15 -115 15 l-115 0 0 -290z"/>
<path d="M3730 3635 c13 -14 26 -25 28 -25 3 0 -5 11 -18 25 -13 14 -26 25
-28 25 -3 0 5 -11 18 -25z"/>
<path d="M9349 3629 c-16 -30 3 -69 34 -69 29 0 47 17 47 45 0 45 -60 63 -81
24z"/>
<path d="M3770 3608 c0 -6 148 -130 182 -152 30 -20 59 -11 78 24 15 28 4 25
-25 -6 l-24 -26 -68 54 c-98 78 -143 111 -143 106z"/>
<path d="M9356 3464 c-19 -18 -20 -28 -6 -55 20 -37 80 -18 80 26 0 42 -44 59
-74 29z"/>
<path d="M9526 3464 c-19 -18 -20 -28 -6 -55 20 -37 80 -18 80 26 0 42 -44 59
-74 29z"/>
<path d="M384 3235 c-10 -8 -14 -15 -8 -15 5 0 19 7 30 15 10 8 14 15 8 15 -5
0 -19 -7 -30 -15z"/>
<path d="M2585 3130 c3 -5 14 -10 23 -10 15 0 15 2 2 10 -20 13 -33 13 -25 0z"/>
<path d="M2693 3103 c9 -9 20 -13 24 -9 4 4 1 11 -7 16 -25 16 -35 11 -17 -7z"/>
<path d="M2630 3096 c0 -2 8 -10 18 -17 15 -13 16 -12 3 4 -13 16 -21 21 -21
13z"/>
<path d="M2530 3080 c0 -5 5 -10 11 -10 5 0 7 5 4 10 -3 6 -8 10 -11 10 -2 0
-4 -4 -4 -10z"/>
<path d="M2590 3056 c0 -3 14 -12 30 -21 17 -9 30 -13 30 -11 0 3 -13 12 -30
21 -16 9 -30 13 -30 11z"/>
<path d="M2945 2916 c29 -23 45 -25 45 -6 0 5 -6 7 -13 4 -8 -3 -20 2 -27 11
-7 8 -18 15 -24 15 -6 0 2 -11 19 -24z"/>
<path d="M2929 2896 c26 -28 31 -31 31 -17 0 5 -12 17 -27 26 l-28 18 24 -27z"/>
<path d="M2873 2883 c-6 -16 28 -53 48 -53 22 0 21 34 0 52 -29 22 -40 23 -48
1z m47 -18 c10 -12 10 -15 -3 -15 -8 0 -20 7 -27 15 -10 12 -10 15 3 15 8 0
20 -7 27 -15z"/>
<path d="M4439 2827 c-7 -12 -17 -25 -23 -29 -6 -4 -7 -10 -4 -14 8 -7 38 20
38 35 0 5 8 11 18 13 16 3 16 4 0 10 -12 5 -21 1 -29 -15z"/>
<path d="M2824 2828 c-8 -13 43 -61 57 -53 16 10 10 25 -8 18 -11 -4 -14 -3
-9 5 4 7 1 12 -9 12 -11 0 -15 5 -11 15 6 18 -10 20 -20 3z"/>
<path d="M2376 2815 c4 -8 10 -12 15 -9 11 6 2 24 -11 24 -5 0 -7 -7 -4 -15z"/>
<path d="M4899 2756 c-29 -33 -68 -77 -87 -96 -19 -19 -46 -50 -60 -68 -15
-19 -31 -31 -39 -28 -8 3 -11 1 -8 -4 3 -6 2 -10 -3 -10 -13 0 -163 119 -220
173 -37 36 -45 40 -62 29 -11 -6 -32 -9 -50 -6 -23 5 -30 3 -30 -10 0 -21 -4
-20 -48 9 -95 63 -155 44 -248 -81 -16 -21 -31 -41 -34 -44 -3 -3 -52 -63
-110 -135 -57 -71 -121 -150 -142 -175 -73 -88 -203 -248 -233 -286 -16 -21
-45 -56 -64 -78 -59 -71 -59 -78 -12 -139 104 -135 507 -472 643 -538 26 -12
49 -21 51 -18 11 12 245 308 262 330 26 34 317 392 325 399 3 3 34 43 69 89
59 76 64 88 63 130 -1 59 -13 88 -51 129 -19 21 -25 32 -15 32 8 0 14 9 14 20
0 20 14 27 23 13 2 -5 2 -2 1 5 -2 6 4 12 14 12 14 0 14 2 3 9 -8 5 -11 15 -8
22 3 8 53 74 111 148 58 73 106 139 106 146 0 16 -65 71 -91 78 -13 3 -33 -13
-70 -57z m-494 -116 c3 -6 -1 -7 -9 -4 -18 7 -21 14 -7 14 6 0 13 -4 16 -10z
m166 -26 c21 -24 22 -26 3 -16 -25 13 -50 42 -37 42 5 0 20 -12 34 -26z m-131
-4 c0 -5 -2 -10 -4 -10 -3 0 -8 5 -11 10 -3 6 -1 10 4 10 6 0 11 -4 11 -10z
m125 -35 l30 -26 -33 18 c-18 10 -41 27 -50 37 -16 18 -16 18 3 8 11 -6 34
-23 50 -37z m-5 -40 c7 -8 8 -15 3 -15 -10 0 -73 56 -73 65 0 8 53 -30 70 -50z
m-53 -44 c23 -19 48 -70 39 -78 -3 -3 -41 17 -84 43 -72 45 -130 103 -115 118
7 7 128 -56 160 -83z m-181 -57 c52 -25 101 -85 109 -135 7 -38 5 -45 -16 -60
-13 -10 -32 -25 -41 -33 -24 -21 -74 -46 -93 -46 -26 0 -65 -31 -65 -51 0 -11
-9 -27 -20 -36 -11 -10 -20 -21 -20 -26 0 -5 -15 -23 -33 -41 -36 -34 -73 -87
-69 -99 1 -4 -7 -3 -19 3 -11 7 -23 9 -27 6 -3 -3 -1 -6 5 -6 6 0 14 -7 17
-16 4 -11 -3 -8 -22 8 -39 32 -77 79 -58 72 10 -4 17 2 22 20 3 14 15 28 26
31 10 4 26 22 35 41 9 19 21 34 26 34 5 0 7 6 4 14 -3 8 5 22 18 32 13 10 22
21 19 25 -2 4 3 9 10 12 8 3 17 3 19 -1 2 -4 2 -2 1 5 -2 7 1 15 6 18 6 4 10
19 10 34 0 47 11 89 29 108 9 10 15 25 13 34 -4 19 42 69 64 69 9 0 31 -7 50
-16z"/>
<path d="M2811 2784 c12 -15 11 -16 -11 -9 l-25 7 27 -26 c31 -30 40 -33 32
-11 -5 11 -2 13 10 9 23 -9 20 5 -6 27 -28 23 -45 25 -27 3z"/>
<path d="M2760 2741 c0 -5 8 -18 18 -29 14 -18 19 -19 29 -7 11 11 9 17 -9 29
-25 18 -38 20 -38 7z"/>
<path d="M2567 2712 c-29 -31 -33 -42 -15 -42 6 0 19 -7 29 -16 17 -15 19 -15
35 0 13 14 14 19 3 33 -12 14 -11 15 9 9 30 -10 28 8 -3 28 -31 20 -26 21 -58
-12z"/>
<path d="M2745 2680 l30 -32 -32 16 c-43 21 -46 20 -28 -8 19 -29 6 -41 -21
-21 -18 15 -18 15 1 9 16 -5 17 -4 5 5 -12 8 -21 5 -40 -14 l-25 -25 29 -25
29 -25 23 28 c23 26 28 37 25 56 -1 5 5 6 13 3 12 -5 46 20 35 26 -2 1 -20 11
-39 21 l-35 19 30 -33z m-55 -64 c0 -2 -7 -7 -16 -10 -8 -3 -12 -2 -9 4 6 10
25 14 25 6z"/>
<path d="M3465 2520 c-3 -5 -1 -10 4 -10 6 0 11 5 11 10 0 6 -2 10 -4 10 -3 0
-8 -4 -11 -10z"/>
<path d="M3070 2491 c0 -6 5 -13 12 -17 6 -4 8 -3 4 4 -3 5 0 13 6 15 8 3 6 6
-4 6 -10 1 -18 -3 -18 -8z"/>
<path d="M2964 2475 c-4 -8 -10 -12 -15 -9 -5 3 -9 -2 -9 -10 0 -28 16 -25 27
5 6 16 9 29 7 29 -3 0 -7 -7 -10 -15z"/>
<path d="M3036 2443 c6 -10 -26 -34 -36 -28 -5 3 -10 2 -10 -4 0 -18 24 -18
44 1 13 12 16 21 10 27 -6 5 -10 6 -8 4z"/>
<path d="M2910 2431 c0 -5 -8 -11 -17 -14 -17 -4 -17 -4 0 -12 22 -10 47 0 47
20 0 8 -7 15 -15 15 -8 0 -15 -4 -15 -9z"/>
<path d="M3384 2418 l-19 -23 23 19 c12 11 22 21 22 23 0 8 -8 2 -26 -19z"/>
<path d="M2956 2371 c-14 -5 -16 -10 -7 -15 15 -9 41 -1 41 14 0 11 -7 12 -34
1z"/>
<path d="M3290 2325 c-13 -14 -20 -28 -16 -32 4 -4 18 5 31 19 14 15 21 29 16
32 -4 3 -19 -6 -31 -19z"/>
<path d="M5755 2167 c-11 -6 -28 -21 -39 -34 -10 -14 -25 -22 -32 -19 -17 6
-54 -27 -54 -48 0 -8 -7 -17 -16 -20 -12 -5 -15 -2 -11 13 2 10 1 25 -4 32 -7
11 -9 11 -9 -2 0 -19 -41 -59 -61 -59 -8 0 -20 -13 -26 -30 -9 -25 -8 -33 9
-55 11 -14 16 -25 11 -25 -4 0 -17 14 -28 30 -19 29 -45 40 -45 20 0 -5 -6 -7
-14 -4 -11 4 -17 -5 -22 -33 -9 -52 -14 -57 -29 -36 -13 17 -14 17 -33 0 -26
-24 -34 -96 -14 -120 22 -26 7 -32 -16 -7 -21 23 -42 20 -42 -6 0 -8 -4 -13
-9 -9 -5 3 -12 1 -16 -5 -4 -7 -12 -7 -24 0 -22 11 -31 4 -31 -27 0 -20 -4
-23 -22 -18 -20 7 -21 5 -15 -50 5 -51 3 -60 -19 -83 -34 -38 -58 -92 -57
-129 1 -18 -2 -33 -7 -33 -12 0 -18 -47 -9 -62 9 -13 10 -11 12 32 2 20 7 24
25 22 15 -2 29 4 38 16 7 11 22 22 33 25 16 4 19 0 17 -32 -1 -20 -6 -49 -11
-66 -7 -25 -6 -28 6 -19 8 6 31 14 52 18 45 8 117 69 118 100 0 11 3 15 6 8 3
-9 10 -7 24 9 10 12 16 25 14 29 -3 5 11 22 32 39 20 17 34 33 31 37 -4 3 4
16 18 29 13 12 24 34 24 48 0 27 20 40 46 30 12 -4 15 0 13 19 -3 18 7 34 41
63 25 22 49 46 53 53 5 7 16 20 26 30 17 16 38 76 33 95 -1 4 13 14 33 23 19
8 42 25 51 39 9 14 20 23 24 20 10 -6 40 22 40 36 0 5 -5 9 -11 9 -8 0 -8 4
-1 13 6 6 8 23 5 37 -3 20 -11 26 -34 28 -16 1 -29 -2 -29 -7 0 -5 9 -7 20 -4
19 5 29 -10 13 -20 -5 -2 -2 -2 5 -1 14 4 16 -15 3 -35 -8 -12 -14 -12 -40 -1
-24 10 -34 10 -45 1 -12 -10 -19 -8 -35 8 -19 19 -19 20 15 43 46 31 62 69 19
45z m-165 -169 c0 -4 -4 -8 -9 -8 -6 0 -12 4 -15 8 -3 5 1 9 9 9 8 0 15 -4 15
-9z m30 -18 c0 -5 -5 -10 -11 -10 -5 0 -7 5 -4 10 3 6 8 10 11 10 2 0 4 -4 4
-10z m-193 -326 c2 -7 -6 -10 -22 -7 -14 3 -25 10 -25 15 0 13 43 6 47 -8z
m-107 -44 c12 -8 11 -10 -7 -10 -13 0 -23 5 -23 10 0 13 11 13 30 0z m-165
-60 c3 -5 1 -10 -4 -10 -6 0 -11 5 -11 10 0 6 2 10 4 10 3 0 8 -4 11 -10z
m115 -20 c0 -5 -4 -10 -10 -10 -5 0 -10 5 -10 10 0 6 5 10 10 10 6 0 10 -4 10
-10z m20 -70 c0 -5 -4 -10 -10 -10 -5 0 -10 5 -10 10 0 6 5 10 10 10 6 0 10
-4 10 -10z"/>
<path d="M5520 2060 c-12 -8 -10 -10 8 -10 13 0 20 4 17 10 -7 12 -6 12 -25 0z"/>
<path d="M4604 1794 c-16 -21 -40 -50 -54 -65 -30 -33 -52 -60 -133 -163 -243
-311 -254 -326 -228 -326 5 0 13 10 17 22 8 25 29 50 37 42 8 -9 47 48 40 59
-3 6 -1 7 5 3 11 -7 79 70 74 85 -1 5 2 9 8 9 6 0 10 7 10 17 0 9 3 13 7 10
10 -10 43 24 43 44 0 22 17 34 23 17 3 -8 9 -2 15 13 6 15 23 42 39 60 16 19
35 46 42 62 8 15 18 27 23 27 4 0 8 7 8 15 0 9 7 18 15 21 8 4 15 13 15 22 0
8 7 24 17 34 9 10 14 21 11 24 -3 3 -19 -12 -34 -32z"/>
<path d="M3202 1388 c-7 -7 -12 -18 -12 -25 0 -7 -5 -13 -11 -13 -5 0 -7 -5
-4 -10 9 -15 25 -2 25 20 0 10 6 20 13 23 6 2 9 7 6 10 -3 4 -11 1 -17 -5z"/>
<path d="M3230 1360 c0 -5 5 -10 11 -10 5 0 7 5 4 10 -3 6 -8 10 -11 10 -2 0
-4 -4 -4 -10z"/>
<path d="M3203 1324 c-11 -29 12 -33 31 -6 l20 27 -24 -20 c-20 -17 -23 -18
-17 -2 4 9 4 17 1 17 -2 0 -7 -7 -11 -16z"/>
<path d="M3248 1308 c-19 -30 -13 -51 12 -38 10 5 21 17 24 27 6 16 6 16 -12
0 -27 -25 -35 -21 -16 8 9 14 14 25 11 25 -2 0 -11 -10 -19 -22z"/>
<path d="M3117 1282 c-19 -21 -22 -32 -7 -32 10 0 34 39 27 46 -2 2 -11 -4
-20 -14z"/>
<path d="M3289 1272 c-14 -14 -15 -19 -4 -29 10 -9 14 -8 19 5 3 9 9 23 12 30
8 17 -8 14 -27 -6z"/>
<path d="M3143 1258 c-20 -26 -26 -41 -15 -34 7 4 12 2 12 -4 0 -16 18 -3 32
23 10 20 10 21 -6 8 -14 -12 -16 -12 -10 3 7 19 0 21 -13 4z"/>
<path d="M3746 1254 c-5 -14 -4 -15 9 -4 17 14 19 20 6 20 -5 0 -12 -7 -15
-16z"/>
<path d="M3317 1234 c-11 -14 -17 -27 -15 -30 3 -2 14 10 27 26 12 17 18 30
14 30 -4 0 -16 -12 -26 -26z"/>
<path d="M3177 1214 c-22 -29 -14 -31 13 -4 10 10 16 21 12 24 -4 2 -15 -7
-25 -20z"/>
<path d="M3350 1200 c-21 -16 -22 -20 -7 -20 11 0 15 -4 11 -12 -4 -7 -3 -8 5
-4 7 4 10 13 8 19 -2 7 3 17 12 24 9 7 12 12 6 12 -5 1 -21 -8 -35 -19z"/>
<path d="M3046 1201 c-3 -5 1 -11 9 -15 8 -3 15 -1 15 4 0 13 -18 22 -24 11z"/>
<path d="M3814 1188 l-19 -23 25 20 c14 11 27 21 29 22 2 2 0 3 -6 3 -5 0 -18
-10 -29 -22z"/>
<path d="M3200 1185 c-7 -9 -11 -17 -9 -20 3 -2 10 5 17 15 14 24 10 26 -8 5z"/>
<path d="M3389 1168 c-19 -27 -20 -30 -4 -18 17 14 18 13 12 -2 -10 -28 9 -21
29 10 17 26 17 26 -1 12 -16 -14 -17 -13 -11 8 10 31 1 27 -25 -10z"/>
<path d="M3247 1172 c2 -10 -3 -24 -12 -32 -21 -17 -31 -5 -14 17 12 17 12 17
-6 1 -15 -14 -16 -21 -7 -30 9 -9 16 -7 32 7 21 19 26 40 11 49 -5 4 -7 -2 -4
-12z"/>
<path d="M4112 1168 c-7 -7 -12 -19 -12 -27 0 -11 5 -8 16 7 18 25 15 39 -4
20z"/>
<path d="M3727 1163 c-4 -3 -7 -11 -7 -17 0 -6 5 -5 12 2 6 6 9 14 7 17 -3 3
-9 2 -12 -2z"/>
<path d="M3896 1162 c-2 -4 4 -8 14 -8 10 0 16 4 14 8 -3 4 -9 8 -14 8 -5 0
-11 -4 -14 -8z"/>
<path d="M3020 1150 c0 -5 5 -10 11 -10 5 0 7 5 4 10 -3 6 -8 10 -11 10 -2 0
-4 -4 -4 -10z"/>
<path d="M3431 1136 c-14 -15 -19 -26 -12 -31 6 -3 11 -2 11 3 0 4 9 18 20 30
12 12 17 22 12 22 -5 0 -19 -11 -31 -24z"/>
<path d="M3049 1133 c-13 -16 -12 -17 4 -4 16 13 21 21 13 21 -2 0 -10 -8 -17
-17z"/>
<path d="M3256 1122 c-11 -14 -15 -22 -9 -19 6 4 13 3 15 -2 1 -5 12 2 22 17
11 14 15 22 9 19 -6 -4 -13 -3 -15 2 -1 5 -12 -2 -22 -17z"/>
<path d="M3764 1125 c-7 -17 3 -35 19 -35 8 0 7 3 -2 9 -8 5 -11 16 -8 25 4 9
4 16 1 16 -2 0 -7 -7 -10 -15z"/>
<path d="M3080 1115 c-7 -9 -11 -17 -9 -20 3 -2 10 5 17 15 14 24 10 26 -8 5z"/>
<path d="M3849 1103 c-20 -23 -20 -25 -2 -9 12 10 26 15 32 11 7 -3 8 0 5 9
-8 20 -6 21 -35 -11z"/>
<path d="M4050 1085 c-19 -25 -37 -45 -42 -45 -4 0 -8 -4 -8 -10 0 -9 -14 -29
-45 -64 -6 -6 -35 -42 -64 -81 -30 -38 -67 -83 -83 -99 -15 -17 -28 -36 -28
-44 0 -17 30 18 144 163 48 61 95 120 106 131 11 12 20 26 20 32 0 5 6 12 14
15 10 4 31 47 22 47 -1 0 -17 -20 -36 -45z"/>
<path d="M3119 1093 c-13 -14 -18 -23 -11 -19 7 4 12 2 12 -6 1 -7 8 0 16 15
21 38 13 43 -17 10z"/>
<path d="M3303 1108 c-23 -30 -24 -41 -2 -21 12 12 20 25 17 28 -3 3 -10 0
-15 -7z"/>
<path d="M3314 1075 c-13 -20 -14 -29 -5 -38 10 -9 17 -7 32 12 11 13 18 29
16 34 -7 21 -26 18 -43 -8z m21 -15 c-10 -11 -20 -18 -23 -15 -3 3 3 14 13 25
10 11 20 18 23 15 3 -3 -3 -14 -13 -25z"/>
<path d="M3145 1060 c-10 -11 -16 -22 -13 -25 3 -3 13 4 23 15 10 11 16 22 13
25 -3 3 -13 -4 -23 -15z"/>
<path d="M3173 1058 c-23 -30 -24 -41 -2 -21 12 12 20 25 17 28 -3 3 -10 0
-15 -7z"/>
<path d="M3820 1066 c0 -2 8 -10 18 -17 15 -13 16 -12 3 4 -13 16 -21 21 -21
13z"/>
<path d="M3900 1059 c0 -5 5 -7 10 -4 6 3 10 8 10 11 0 2 -4 4 -10 4 -5 0 -10
-5 -10 -11z"/>
<path d="M3363 1043 c-21 -14 -34 -41 -14 -29 5 4 11 0 13 -6 3 -8 9 -4 17 10
17 32 10 43 -16 25z"/>
<path d="M3201 1033 c0 -12 2 -14 6 -4 5 11 7 11 15 0 8 -12 9 -12 6 0 -6 22
-28 25 -27 4z"/>
<path d="M3404 1019 c-23 -29 -25 -39 -9 -33 11 5 14 2 8 -12 -9 -24 13 -10
28 18 7 13 7 18 1 14 -6 -3 -12 1 -14 10 -2 14 -5 15 -14 3z"/>
<path d="M3190 995 c-8 -9 -8 -15 -2 -15 12 0 26 19 19 26 -2 2 -10 -2 -17
-11z"/>
<path d="M3225 990 c-10 -11 -16 -22 -13 -25 3 -3 13 6 22 20 20 30 16 32 -9
5z"/>
<path d="M3446 968 l-19 -33 26 24 c15 13 24 28 21 32 -7 13 -8 12 -28 -23z"/>
<path d="M3245 970 c-10 -11 -16 -22 -13 -25 3 -3 13 4 23 15 10 11 16 22 13
25 -3 3 -13 -4 -23 -15z"/>
<path d="M3265 960 c-10 -11 -15 -23 -12 -27 7 -6 36 25 37 40 0 11 -6 8 -25
-13z"/>
<path d="M3291 938 c-12 -12 -20 -27 -18 -33 6 -17 34 -17 41 1 5 14 4 15 -9
4 -23 -19 -31 -3 -10 20 14 15 20 17 26 8 4 -7 11 -10 14 -7 3 4 -1 12 -9 18
-11 10 -18 8 -35 -11z"/>
<path d="M3357 892 c-21 -23 -22 -52 -3 -52 17 0 44 41 39 58 -6 17 -17 15
-36 -6z m16 -24 c-10 -11 -19 -15 -21 -8 -5 15 18 41 30 34 5 -3 1 -15 -9 -26z"/>
<path d="M3391 850 c-12 -17 -18 -30 -14 -30 10 1 46 50 41 56 -3 2 -14 -10
-27 -26z"/>
<path d="M3416 836 c-23 -36 -20 -44 5 -12 12 15 19 29 16 32 -2 2 -12 -7 -21
-20z"/>
<path d="M2505 750 c-33 -47 -31 -84 10 -161 29 -56 31 -72 11 -88 -18 -15
-18 -230 0 -252 6 -8 15 -32 19 -54 3 -22 15 -53 24 -70 10 -16 24 -51 31 -77
l13 -48 263 0 c169 0 264 4 264 10 0 6 7 10 15 10 8 0 15 4 15 9 0 5 8 12 18
14 10 3 5 5 -13 7 l-30 2 31 13 c17 8 48 33 69 56 l38 43 -24 9 c-80 31 -113
48 -189 98 -176 115 -385 312 -478 452 -25 37 -48 67 -52 67 -4 0 -20 -18 -35
-40z"/>
<path d="M3739 698 c-13 -18 -31 -39 -39 -48 -25 -26 -73 -100 -69 -105 3 -2
16 13 29 33 14 20 34 46 45 57 29 28 68 85 63 91 -3 2 -16 -10 -29 -28z"/>
<path d="M4426 603 c-6 -14 -5 -15 5 -6 7 7 10 15 7 18 -3 3 -9 -2 -12 -12z"/>
<path d="M3597 523 c-4 -3 -7 -11 -7 -17 0 -6 5 -5 12 2 6 6 9 14 7 17 -3 3
-9 2 -12 -2z"/>
<path d="M3015 485 c61 -55 216 -162 276 -190 56 -26 95 -33 84 -14 -4 6 -9 8
-12 5 -15 -15 -187 83 -320 185 -44 33 -54 38 -28 14z"/>
<path d="M4036 478 c-32 -48 -89 -184 -94 -222 -3 -23 -10 -44 -16 -48 -7 -5
-7 -8 2 -8 7 0 11 -4 8 -9 -9 -14 16 -134 32 -156 10 -14 13 -15 9 -4 -3 9 -2
34 3 55 10 44 5 59 -8 23 -9 -23 -10 -23 -17 10 -17 78 28 254 89 344 10 15
16 30 13 33 -3 3 -12 -5 -21 -18z"/>
<path d="M4322 488 c-13 -17 -52 -87 -52 -95 0 -3 9 6 21 21 11 14 30 31 41
37 18 9 17 5 -8 -38 -15 -26 -32 -54 -38 -62 -9 -12 -8 -12 11 -3 35 19 59 14
79 -15 39 -60 94 -103 133 -103 32 0 36 20 10 66 -22 40 -22 45 -7 60 12 12
20 14 36 5 20 -11 32 -6 32 14 0 8 -10 10 -26 7 -17 -3 -31 2 -45 17 -11 11
-25 21 -30 21 -6 0 -24 9 -39 20 l-29 20 -4 -32 -4 -33 -1 32 c-1 21 -11 38
-28 52 -31 24 -38 25 -52 9z m153 -108 c3 -5 1 -10 -4 -10 -6 0 -11 5 -11 10
0 6 2 10 4 10 3 0 8 -4 11 -10z"/>
<path d="M3552 460 c-13 -16 -18 -30 -12 -30 5 0 10 4 10 8 0 5 9 18 20 30 12
12 17 22 12 22 -4 0 -18 -13 -30 -30z"/>
<path d="M4522 465 c-11 -13 -9 -15 8 -15 11 0 20 7 20 15 0 19 -11 19 -28 0z"/>
<path d="M4527 333 c-3 -5 -2 -15 2 -22 7 -10 10 -10 16 -1 4 6 3 16 -3 22 -5
5 -12 6 -15 1z"/>
<path d="M4582 314 c9 -9 21 -15 27 -13 6 2 -2 10 -17 17 -25 11 -25 11 -10
-4z"/>
</g>
</svg>
