<?xml version="1.0" standalone="no"?>
<!DOCTYPE svg PUBLIC "-//W3C//DTD SVG 20010904//EN"
 "http://www.w3.org/TR/2001/REC-SVG-20010904/DTD/svg10.dtd">
<svg version="1.0" xmlns="http://www.w3.org/2000/svg"
 width="1200.000000pt" height="628.000000pt" viewBox="0 0 1200.000000 628.000000"
 preserveAspectRatio="xMidYMid meet">

<g transform="translate(0.000000,628.000000) scale(0.100000,-0.100000)"
fill="#000000" stroke="none">
<path d="M2177 4086 c-110 -31 -207 -130 -250 -257 -21 -63 -22 -77 -25 -659
-2 -510 -1 -605 13 -665 32 -144 97 -235 209 -290 70 -34 209 -46 307 -25 145
31 250 145 285 309 20 96 20 1186 0 1282 -28 133 -102 231 -213 285 -49 24
-70 28 -167 31 -71 2 -128 -2 -159 -11z m279 -129 c60 -30 105 -92 132 -177
15 -49 17 -116 17 -640 0 -524 -2 -591 -17 -640 -45 -145 -127 -205 -278 -205
-109 0 -169 28 -217 99 -66 97 -66 96 -71 676 -4 596 1 676 48 775 50 105 128
148 260 142 56 -3 88 -10 126 -30z"/>
<path d="M3477 4089 c-181 -43 -287 -228 -274 -479 11 -203 93 -326 337 -500
281 -201 350 -304 338 -507 -13 -211 -102 -307 -283 -307 -100 1 -164 28 -212
92 -45 59 -64 128 -70 255 l-6 107 -58 0 -59 0 0 -87 c1 -225 74 -374 218
-445 58 -29 77 -33 168 -36 253 -10 393 112 426 370 31 252 -48 402 -322 606
-293 219 -351 299 -351 490 0 156 50 264 144 315 64 33 193 32 262 -4 56 -28
109 -90 125 -147 6 -20 16 -79 23 -129 l11 -93 59 0 59 0 -7 83 c-9 109 -20
159 -51 224 -46 97 -115 158 -214 187 -58 17 -199 20 -263 5z"/>
<path d="M4747 4089 c-181 -43 -286 -229 -274 -487 4 -90 9 -111 39 -175 49
-103 122 -184 244 -274 190 -140 265 -204 315 -272 60 -80 79 -140 79 -242 0
-103 -14 -165 -53 -230 -57 -95 -180 -137 -308 -105 -78 20 -101 35 -139 88
-42 58 -60 125 -67 251 l-6 107 -60 0 -60 0 6 -117 c12 -230 78 -353 227 -422
73 -34 222 -42 314 -17 165 45 261 192 273 416 12 226 -65 352 -343 561 -178
134 -223 176 -272 251 -54 83 -66 136 -59 256 6 114 25 175 73 230 71 83 222
107 330 51 92 -47 136 -133 149 -291 l7 -78 60 0 61 0 -7 87 c-17 220 -110
363 -266 407 -61 17 -200 20 -263 5z"/>
<path d="M8657 4086 c-115 -31 -211 -136 -250 -273 -21 -77 -22 -89 -22 -673
0 -590 0 -596 23 -674 30 -104 78 -175 153 -225 68 -45 129 -61 236 -61 142 0
244 48 318 148 61 82 77 152 83 360 l4 182 -60 0 -60 0 -4 -172 c-5 -195 -18
-251 -74 -317 -92 -107 -301 -115 -406 -14 -14 14 -39 53 -55 86 l-28 62 0
625 0 625 29 63 c18 39 45 77 70 98 107 92 290 82 384 -20 58 -63 74 -122 80
-293 l4 -143 60 0 61 0 -6 153 c-4 117 -10 167 -26 217 -39 120 -131 213 -242
244 -66 19 -205 20 -272 2z"/>
<path d="M0 3139 l0 -951 268 4 c246 4 271 6 323 26 76 30 118 63 161 127 58
87 71 165 66 403 -4 173 -7 204 -26 253 -32 80 -81 133 -162 172 l-68 33 48
17 c65 23 122 82 151 153 22 55 24 73 24 254 0 179 -2 200 -23 251 -45 112
-129 178 -253 199 -35 5 -164 10 -286 10 l-223 0 0 -951z m517 816 c64 -19
107 -66 129 -141 13 -44 15 -91 12 -227 -3 -161 -5 -175 -28 -217 -51 -91
-115 -113 -335 -114 l-160 -1 -3 358 -2 357 168 0 c121 0 183 -4 219 -15z
m-72 -826 c118 -16 181 -59 224 -149 25 -54 26 -60 26 -260 l0 -205 -29 -63
c-56 -121 -109 -142 -363 -142 l-173 0 0 408 c0 225 3 412 7 415 10 11 229 8
308 -4z"/>
<path d="M1300 3140 l0 -950 60 0 60 0 0 950 0 950 -60 0 -60 0 0 -950z"/>
<path d="M6008 3967 c-57 -260 -99 -451 -148 -677 -28 -129 -67 -307 -86 -395
-19 -88 -46 -209 -59 -270 -53 -245 -85 -391 -90 -413 -5 -22 -4 -23 52 -20
l58 3 22 95 c12 52 34 146 49 208 l26 112 294 0 294 0 5 -22 c4 -21 29 -134
72 -325 l17 -73 63 0 c35 0 63 3 63 7 0 4 -7 32 -15 62 -14 54 -100 437 -170
761 -18 85 -79 358 -134 607 -56 249 -101 454 -101 457 0 3 -42 6 -92 6 l-93
0 -27 -123z m170 -272 c28 -121 72 -314 98 -430 26 -115 64 -282 84 -370 20
-88 35 -163 33 -167 -5 -9 -543 -11 -543 -2 0 3 7 32 15 63 8 31 28 119 44
196 17 77 47 212 66 300 20 88 49 219 65 290 72 327 78 351 84 344 2 -2 26
-103 54 -224z"/>
<path d="M7040 3140 l0 -950 55 0 55 0 0 830 c0 457 3 830 8 830 4 0 133 -361
287 -801 154 -441 285 -815 292 -831 12 -28 14 -29 80 -26 l68 3 1 770 c1 424
-1 850 -4 948 l-5 177 -53 0 -54 0 -2 -792 -3 -793 -122 345 c-254 718 -392
1107 -416 1170 l-25 65 -81 3 -81 3 0 -951z"/>
<path d="M9675 4078 c-3 -7 -4 -434 -3 -948 l3 -935 373 -3 372 -2 0 60 0 60
-310 0 -310 0 2 393 3 392 245 2 c135 2 251 3 258 3 8 0 12 18 12 55 l0 55
-260 0 -260 0 0 380 0 380 310 0 310 0 0 60 0 60 -370 0 c-287 0 -372 -3 -375
-12z"/>
<path d="M10525 4080 c-11 -18 5 -30 41 -30 l34 0 0 -93 c0 -77 3 -94 15 -94
12 0 15 17 15 93 l0 93 38 3 c25 2 37 8 37 18 0 12 -18 16 -87 18 -52 2 -89
-1 -93 -8z"/>
<path d="M10740 3980 c0 -67 4 -110 10 -110 6 0 13 0 18 0 4 0 9 35 12 77 l5
78 24 -77 c32 -105 56 -111 81 -19 6 24 17 55 23 70 10 23 12 17 17 -53 3 -51
10 -81 18 -84 9 -3 12 24 12 113 l0 116 -27 -3 c-25 -3 -30 -11 -51 -81 -13
-42 -27 -75 -31 -73 -4 3 -18 39 -30 81 -21 71 -24 75 -52 75 l-29 0 0 -110z"/>
<path d="M11073 3020 c-140 -63 -91 -280 62 -280 154 0 201 217 61 281 -52 23
-71 23 -123 -1z"/>
<path d="M11056 2451 c-44 -30 -66 -70 -66 -125 0 -141 160 -198 259 -92 19
20 26 40 29 86 4 60 4 60 -40 105 -43 42 -49 45 -99 45 -36 0 -64 -6 -83 -19z"/>
<path d="M11613 2451 c-90 -57 -86 -202 7 -252 158 -85 297 117 166 240 -37
35 -127 41 -173 12z"/>
</g>
</svg>
