<?xml version="1.0" standalone="no"?>
<!DOCTYPE svg PUBLIC "-//W3C//DTD SVG 20010904//EN"
 "http://www.w3.org/TR/2001/REC-SVG-20010904/DTD/svg10.dtd">
<svg version="1.0" xmlns="http://www.w3.org/2000/svg"
 width="1200.000000pt" height="627.000000pt" viewBox="0 0 1200.000000 627.000000"
 preserveAspectRatio="xMidYMid meet">

<g transform="translate(0.000000,627.000000) scale(0.100000,-0.100000)"
fill="#000000" stroke="none">
<path d="M9570 3130 c0 -823 0 -830 20 -830 20 0 20 7 20 830 0 823 0 830 -20
830 -20 0 -20 -7 -20 -830z"/>
<path d="M250 3572 c0 -4 28 -36 63 -70 l63 -62 329 0 c458 0 435 16 435 -310
0 -319 11 -310 -362 -310 l-258 0 0 198 0 198 -70 69 -70 69 0 -337 0 -337
333 0 c391 0 411 3 487 79 73 74 80 104 80 371 0 267 -7 298 -80 370 -78 79
-84 80 -547 80 -222 0 -403 -4 -403 -8z"/>
<path d="M1590 3130 l0 -450 445 0 445 0 0 70 0 70 -375 0 -375 0 0 310 0 310
375 0 375 0 0 70 0 70 -445 0 -445 0 0 -450z"/>
<path d="M2790 3130 l0 -450 70 0 70 0 2 378 3 377 378 3 377 2 0 70 0 70
-450 0 -450 0 0 -450z"/>
<path d="M4000 3130 l0 -450 70 0 70 0 0 450 0 450 -70 0 -70 0 0 -450z"/>
<path d="M4889 3538 c-61 -118 -409 -842 -409 -850 0 -4 33 -8 74 -8 l73 0 27
60 c15 32 99 207 188 387 l161 328 107 -220 107 -220 -180 -3 -181 -2 69 -70
69 -70 146 0 145 0 48 -95 47 -95 76 0 c41 0 73 3 71 8 -2 4 -100 206 -217
450 l-213 442 -94 0 -93 0 -21 -42z"/>
<path d="M5830 3130 l0 -450 70 0 70 0 0 365 c0 201 3 365 8 365 4 -1 130
-165 280 -365 l272 -365 100 0 100 0 0 450 0 450 -70 0 -70 0 -2 -367 -3 -368
-275 367 -275 367 -102 1 -103 0 0 -450z"/>
<path d="M7230 3571 c-78 -24 -157 -99 -178 -169 -8 -25 -12 -123 -12 -272 0
-263 5 -290 63 -356 75 -85 89 -89 359 -92 260 -4 290 1 364 51 63 42 102 116
111 210 l6 67 -77 0 -76 0 0 -50 c0 -64 -20 -103 -64 -124 -28 -13 -70 -16
-241 -16 -223 0 -243 4 -284 56 -20 25 -21 39 -21 248 0 238 3 253 53 290 26
19 44 21 230 24 225 4 262 -2 301 -49 21 -25 26 -41 26 -85 l0 -54 76 0 77 0
-6 68 c-12 126 -85 221 -195 252 -42 11 -474 12 -512 1z"/>
<path d="M8240 3130 l0 -450 450 0 450 0 0 70 0 70 -377 2 -378 3 0 305 0 305
378 3 377 2 0 70 0 70 -450 0 -450 0 0 -450z"/>
<path d="M10040 3130 l0 -190 190 0 190 0 0 35 0 35 -155 0 -155 0 0 120 0
120 155 0 155 0 0 35 0 35 -190 0 -190 0 0 -190z"/>
<path d="M10540 3285 l0 -35 75 0 75 0 0 -155 0 -155 35 0 35 0 0 155 0 155
80 0 80 0 0 35 0 35 -190 0 -190 0 0 -35z"/>
<path d="M11040 3130 l0 -190 30 0 30 0 0 155 0 155 160 0 160 0 0 35 0 35
-190 0 -190 0 0 -190z"/>
<path d="M11505 3195 c-46 -45 -23 -126 38 -140 12 -3 51 -6 87 -7 57 -3 65
-5 65 -23 0 -18 -8 -20 -72 -23 -64 -3 -73 -1 -83 18 -6 12 -21 20 -35 20 -20
0 -25 -5 -25 -25 0 -14 11 -37 25 -50 22 -23 32 -25 110 -25 82 0 88 1 116 29
31 31 36 55 18 94 -16 36 -44 46 -129 49 -67 3 -75 5 -75 23 0 18 8 20 73 23
58 2 73 0 78 -13 4 -9 18 -15 35 -15 37 0 39 31 4 65 -22 23 -32 25 -115 25
-83 0 -93 -2 -115 -25z"/>
<path d="M1855 3130 l69 -70 253 0 253 0 0 70 0 70 -322 0 -322 0 69 -70z"/>
<path d="M3065 3130 l69 -70 248 0 248 0 0 70 0 70 -317 0 -317 0 69 -70z"/>
<path d="M8515 3130 l69 -70 248 0 248 0 0 70 0 70 -317 0 -317 0 69 -70z"/>
<path d="M10165 3130 c28 -29 31 -30 127 -30 l98 0 0 30 0 30 -127 0 -127 0
29 -30z"/>
<path d="M11165 3130 c28 -29 31 -30 127 -30 l98 0 0 30 0 30 -127 0 -127 0
29 -30z"/>
</g>
</svg>
