<?xml version="1.0" standalone="no"?>
<!DOCTYPE svg PUBLIC "-//W3C//DTD SVG 20010904//EN"
 "http://www.w3.org/TR/2001/REC-SVG-20010904/DTD/svg10.dtd">
<svg version="1.0" xmlns="http://www.w3.org/2000/svg"
 width="1110.000000pt" height="333.000000pt" viewBox="0 0 1110.000000 333.000000"
 preserveAspectRatio="xMidYMid meet">

<g transform="translate(0.000000,333.000000) scale(0.100000,-0.100000)"
fill="#000000" stroke="none">
<path d="M2058 2043 l-98 -98 0 -383 0 -382 95 0 95 0 0 190 0 190 145 0 145
0 0 95 0 94 -142 3 -143 3 -3 98 -3 97 196 0 196 0 -3 93 -3 92 -190 3 -190 2
-97 -97z"/>
<path d="M2977 2042 l-97 -97 0 -383 0 -382 95 0 95 0 0 190 0 190 95 0 95 0
0 -190 0 -191 98 3 97 3 2 379 2 380 -96 98 -97 98 -96 0 -95 0 -98 -98z m285
-192 l0 -95 -94 0 -93 0 -3 98 -3 98 97 -3 96 -3 0 -95z"/>
<path d="M3880 2135 c0 -3 0 -218 0 -477 l0 -473 92 0 93 0 0 188 0 187 98 0
97 0 0 -190 0 -190 95 0 95 0 0 193 0 192 -92 92 -93 92 -100 3 -99 3 1 95 0
95 97 3 96 3 0 -96 0 -95 95 0 95 0 0 93 0 92 -98 98 -97 97 -188 0 c-103 0
-187 -2 -187 -5z"/>
<path d="M4967 2042 l-97 -97 0 -383 0 -382 95 0 95 0 0 190 0 189 143 3 142
3 3 93 3 92 -146 0 -145 0 0 100 0 100 190 0 190 0 0 95 0 95 -188 0 -187 0
-98 -98z"/>
<path d="M5858 2043 l-98 -98 0 -285 0 -285 98 -98 98 -97 189 2 190 3 3 93 3
92 -196 0 -195 0 0 95 0 95 145 0 145 0 0 95 0 94 -142 3 -143 3 -3 98 -3 97
196 0 196 0 -3 93 -3 92 -190 3 -190 2 -97 -97z"/>
<path d="M6720 2045 l0 -95 95 0 95 0 0 -385 0 -385 95 0 95 0 0 385 0 385 95
0 95 0 0 95 0 95 -285 0 -285 0 0 -95z"/>
<path d="M7747 2043 l-97 -98 0 -290 0 -290 93 -93 92 -92 193 0 192 0 0 95 0
95 -190 0 -190 0 0 290 0 290 190 0 190 0 0 95 0 95 -188 0 -189 0 -96 -97z"/>
<path d="M8570 1660 l0 -480 95 0 95 0 0 190 0 190 95 0 95 0 0 -190 0 -190
95 0 95 0 0 480 0 480 -95 0 -95 0 -2 -192 -3 -193 -92 -3 -93 -3 0 196 0 195
-95 0 -95 0 0 -480z"/>
</g>
</svg>
