<?xml version="1.0" standalone="no"?>
<!DOCTYPE svg PUBLIC "-//W3C//DTD SVG 20010904//EN"
 "http://www.w3.org/TR/2001/REC-SVG-20010904/DTD/svg10.dtd">
<svg version="1.0" xmlns="http://www.w3.org/2000/svg"
 width="512.000000pt" height="512.000000pt" viewBox="0 0 512.000000 512.000000"
 preserveAspectRatio="xMidYMid meet">

<g transform="translate(0.000000,512.000000) scale(0.100000,-0.100000)"
fill="#000000" stroke="none">
<path d="M1320 3310 l0 -60 561 0 c550 0 561 0 538 19 -45 34 -131 72 -198 87
-51 10 -164 14 -483 14 l-418 0 0 -60z"/>
<path d="M2660 3310 l0 -60 334 0 334 0 -22 58 -22 57 -312 3 -312 2 0 -60z"/>
<path d="M400 3305 l0 -55 400 0 400 0 0 55 0 55 -400 0 -400 0 0 -55z"/>
<path d="M3793 3305 l-21 -55 334 0 334 0 0 55 0 55 -314 0 -313 0 -20 -55z"/>
<path d="M400 3095 l0 -65 233 0 c129 0 309 3 401 7 l167 6 -3 56 -3 56 -397
3 -398 2 0 -65z"/>
<path d="M1320 3095 l0 -65 620 0 c697 0 637 -8 599 81 l-21 49 -599 0 -599 0
0 -65z"/>
<path d="M2667 3153 c-4 -3 -7 -33 -7 -65 l0 -58 375 0 375 0 -24 63 -23 62
-345 3 c-189 1 -347 -1 -351 -5z"/>
<path d="M3735 3148 c-21 -57 -35 -102 -35 -109 0 -10 356 -12 583 -2 l157 6
0 59 0 58 -350 0 c-271 0 -352 -3 -355 -12z"/>
<path d="M630 2875 l0 -65 175 0 175 0 0 65 0 65 -175 0 -175 0 0 -65z"/>
<path d="M1530 2875 l0 -65 175 0 175 0 0 65 0 65 -175 0 -175 0 0 -65z"/>
<path d="M2210 2875 l0 -65 170 0 170 0 11 28 c6 15 13 44 16 65 l6 37 -187 0
-186 0 0 -65z"/>
<path d="M2880 2875 l0 -65 305 0 c168 0 305 1 305 3 0 1 -10 30 -23 62 l-23
60 -282 3 -282 2 0 -65z"/>
<path d="M3641 2885 c-12 -31 -21 -60 -21 -65 0 -6 114 -10 300 -10 l300 0 0
65 0 65 -279 0 -280 0 -20 -55z"/>
<path d="M630 2675 l0 -65 175 0 175 0 0 65 0 65 -175 0 -175 0 0 -65z"/>
<path d="M1530 2675 l0 -65 440 0 439 0 51 61 c27 33 50 62 50 65 0 2 -220 4
-490 4 l-490 0 0 -65z"/>
<path d="M2880 2675 l0 -65 170 0 170 0 1 33 1 32 14 -32 14 -33 304 0 303 0
11 33 10 32 1 -32 1 -33 170 0 170 0 0 65 0 65 -317 -2 -316 -3 -16 -45 -15
-45 -20 48 -20 47 -318 0 -318 0 0 -65z"/>
<path d="M630 2455 l0 -65 175 0 175 0 0 65 0 65 -175 0 -175 0 0 -65z"/>
<path d="M1530 2455 l0 -65 485 0 c267 0 485 3 485 8 0 12 -29 53 -63 90 l-31
32 -438 0 -438 0 0 -65z"/>
<path d="M2880 2455 l0 -65 170 0 170 0 0 65 0 65 -170 0 -170 0 0 -65z"/>
<path d="M3293 2493 c3 -16 13 -45 21 -65 l16 -38 224 0 224 0 18 53 c9 28 19
58 22 65 3 9 -54 12 -263 12 l-267 0 5 -27z"/>
<path d="M3880 2455 l0 -65 170 0 170 0 0 65 0 65 -170 0 -170 0 0 -65z"/>
<path d="M630 2235 l0 -65 173 2 172 3 3 63 3 62 -176 0 -175 0 0 -65z"/>
<path d="M1530 2235 l0 -65 175 0 175 0 0 65 0 65 -175 0 -175 0 0 -65z"/>
<path d="M2212 2238 l3 -63 179 -3 179 -2 -6 55 c-3 30 -8 59 -12 65 -4 6 -71
10 -176 10 l-170 0 3 -62z"/>
<path d="M2880 2235 l0 -65 170 0 170 0 0 65 0 65 -170 0 -170 0 0 -65z"/>
<path d="M3383 2238 l22 -63 147 -3 146 -3 21 56 c12 31 21 60 21 65 0 6 -75
10 -190 10 l-189 0 22 -62z"/>
<path d="M3882 2238 l3 -63 168 -3 167 -2 0 65 0 65 -170 0 -171 0 3 -62z"/>
<path d="M4645 2093 c-46 -24 -66 -45 -86 -88 -24 -51 -23 -99 0 -151 28 -61
80 -97 150 -102 97 -7 165 41 190 135 14 49 8 82 -25 140 -42 73 -155 106
-229 66z m155 -35 c53 -37 74 -72 74 -126 0 -91 -61 -152 -152 -152 -118 0
-188 121 -129 224 42 73 141 99 207 54z"/>
<path d="M4650 1925 c0 -78 3 -95 15 -95 11 0 15 11 15 40 0 37 2 40 29 40 22
0 34 -9 55 -40 33 -50 68 -58 39 -9 -10 17 -24 35 -30 41 -10 8 -7 15 12 30
56 44 19 88 -73 88 l-62 0 0 -95z m125 45 c0 -23 -4 -25 -47 -28 -48 -3 -48
-3 -48 28 0 31 0 31 48 28 43 -3 47 -5 47 -28z"/>
<path d="M400 2020 l0 -60 400 0 400 0 0 60 0 60 -400 0 -400 0 0 -60z"/>
<path d="M1310 2020 l0 -60 604 0 604 0 21 49 c11 27 21 54 21 60 0 8 -190 11
-625 11 l-625 0 0 -60z"/>
<path d="M2660 2020 l0 -60 280 0 280 0 0 60 0 60 -280 0 -280 0 0 -60z"/>
<path d="M3445 2063 c4 -10 14 -37 22 -60 l15 -43 71 0 72 0 21 60 21 60 -115
0 c-105 0 -114 -1 -107 -17z"/>
<path d="M3880 2020 l0 -60 280 0 280 0 0 60 0 60 -280 0 -280 0 0 -60z"/>
<path d="M407 1873 c-4 -3 -7 -30 -7 -60 l0 -53 400 0 400 0 0 60 0 60 -393 0
c-217 0 -397 -3 -400 -7z"/>
<path d="M1312 1818 l3 -63 415 -3 c257 -1 441 2 484 8 79 12 180 56 215 94
l24 26 -572 0 -572 0 3 -62z"/>
<path d="M2660 1820 l0 -60 280 0 280 0 0 60 0 60 -280 0 -280 0 0 -60z"/>
<path d="M3527 1833 c22 -68 29 -70 47 -17 22 64 22 64 -23 64 l-40 0 16 -47z"/>
<path d="M3880 1820 l0 -60 280 0 280 0 0 60 0 60 -280 0 -280 0 0 -60z"/>
</g>
</svg>
